PathFileType	4	(X/Y/Z)	52_2_43_p0_0-310_filt_butterworth.trc
DataRate	CameraRate	NumFrames	NumMarkers	Units	OrigDataRate	OrigDataStartFrame	OrigNumFrames
36.0	36.0	5	27	m	36.0	77	310
Frame#	Time	RHip			RKnee			RAnkle			RBigToe			RSmallToe			RHeel			LHip			LKnee			LAnkle			LBigToe			LSmallToe			LHeel			Neck			Head			Nose			RShoulder			RElbow			RWrist			RThumb			RIndex			RPinky			LShoulder			LElbow			LWrist			LThumb			LIndex			LPinky			
		X1	Y1	Z1	X2	Y2	Z2	X3	Y3	Z3	X4	Y4	Z4	X5	Y5	Z5	X6	Y6	Z6	X7	Y7	Z7	X8	Y8	Z8	X9	Y9	Z9	X10	Y10	Z10	X11	Y11	Z11	X12	Y12	Z12	X13	Y13	Z13	X14	Y14	Z14	X15	Y15	Z15	X16	Y16	Z16	X17	Y17	Z17	X18	Y18	Z18	X19	Y19	Z19	X20	Y20	Z20	X21	Y21	Z21	X22	Y22	Z22	X23	Y23	Z23	X24	Y24	Z24	X25	Y25	Z25	X26	Y26	Z26	X27	Y27	Z27	
77	2.138888888888889	0.0018094838455128825	0.699954085097755	0.7785328119706659	0.01243127079976436	0.281778112703691	0.7664880364629332	0.004196927258538655	-0.17848362389071104	0.8516770723741482	0.012588066971569323	-0.15017447097806916	0.6116277597810678	0.07360312674876374	-0.1573453149485343	0.642553071808477	-0.004531065356333289	-0.21984922309854205	0.8871059028646783	-0.19199082883903879	0.6904543820055454	0.7760047312483853	-0.1889724737026257	0.27909191893278906	0.7699262840927105	-0.16074580201472022	-0.13129059424630912	0.7926883748052075	-0.1430364441224044	-0.12190131962923481	0.5835882268257184	-0.2069037436868162	-0.14844611989267498	0.6367813859807294	-0.14100815569063596	-0.21667618335768465	0.8421917386762374	-0.11383298885676313	1.1715019703386949	0.7909321940402141	-0.11112139060462423	1.4064671896404979	0.7284877414763875	-0.10050201605406106	1.2915178447007654	0.6910302084606803	0.03801392021227984	1.1024413579712076	0.7700896964044968	0.0953155470322895	0.8236885201267385	0.8004496178927594	0.10105841668528501	0.5961867128792628	0.7207235256609809	0.0661953463441996	0.5044056454195814	0.6772294986079312	0.07765560898000967	0.49385814532346595	0.6750878916439262	0.09976649905749715	0.4883385972832198	0.6997232488346765	-0.25120328544170206	1.0829586231019046	0.7953398749270306	-0.2868949495816976	0.8183968354007897	0.8355103377285995	-0.2831373574496405	0.6209494749643266	0.7057642538097804	-0.23857523281072152	0.5386840025088118	0.6697479689495643	-0.25410497598190795	0.5150361121718281	0.6611468201489181	-0.3107438064111894	0.5086781671074379	0.725233830758968	
78	2.1666666666666665	0.001904915014853542	0.7004553534399229	0.778569881629399	0.011707433847212595	0.282219384948973	0.7655168001563656	0.0042129556881862415	-0.1785110611008081	0.8516924905895232	0.011868313082598081	-0.1485374474678373	0.6090635588545135	0.0732932713433605	-0.15727717180183903	0.6424786699459704	-0.004527453272382145	-0.2198747594601844	0.8871095621673866	-0.19196205971887187	0.6904437853894856	0.7760789430475066	-0.18895500851235408	0.27908319768297785	0.7700178322315128	-0.16073670732230927	-0.13154271733110817	0.7927456097815176	-0.1432993817178797	-0.12098516050489072	0.5821993887773265	-0.20687680500774358	-0.14837710787492356	0.6367095346586178	-0.14086154480362242	-0.2172335792548569	0.8426211500795922	-0.11456349599918092	1.169123472805497	0.793461468209179	-0.10931250181446323	1.4041744247613956	0.7259383165277666	-0.10015347763577281	1.2891751702587326	0.6904497768188669	0.03898252717747008	1.1017462669975333	0.7737719772608078	0.09535171709515153	0.8237842010504107	0.800539328357555	0.10099455305719754	0.5960623399681372	0.7201957442977417	0.06619803154901874	0.5045043622613211	0.6772726516935401	0.07760920830620727	0.492898778523321	0.6750776965054691	0.09816421648762086	0.4881468127176439	0.6994989104990059	-0.2510819384723162	1.082789605914659	0.7957984471765253	-0.2868610801398582	0.8193124501733967	0.8373056678034538	-0.28319804184648345	0.6214920274361447	0.7057577792026994	-0.23862081101392338	0.538650867517551	0.6697372022595298	-0.2537001875834444	0.5148694280173076	0.6613165045806937	-0.3107231016169118	0.5082677976660748	0.7259646310859265	
79	2.1944444444444446	0.0019422016407347198	0.7008491439734298	0.7786257069096653	0.010939262592923646	0.28252766129610263	0.7645151958849438	0.0044635933558543756	-0.1785810567912166	0.8518071069778621	0.010948872192566584	-0.14646330556647508	0.6056768201338746	0.07290051632706199	-0.15679165279802934	0.6419262515973942	-0.004522024510624857	-0.219905722664771	0.8871099692587923	-0.19196035374684492	0.6904961690611036	0.7761057682555984	-0.18882793486876542	0.27902505510244124	0.7701762726823148	-0.16074893359758025	-0.1318225719599302	0.7928391214069538	-0.14371790550920585	-0.11949809397996966	0.5799676575686659	-0.20685227328226408	-0.14828360175145827	0.6366229036524437	-0.14067124414799978	-0.21792709619306602	0.843266046240014	-0.11531924765187523	1.1667290784627273	0.7960641371052468	-0.10779447869874681	1.4019352294815284	0.7244384933120864	-0.09990987515581534	1.2857491520100814	0.689657428084634	0.03962113565031983	1.1009858405382866	0.7778726147865511	0.09539625867888255	0.8237727437428594	0.8006349475319672	0.10119713921641377	0.5955550150106651	0.7203107445746808	0.06619842373446824	0.5046745151336631	0.6773682305856285	0.0776767786388752	0.4921714242935419	0.6750653159904314	0.09671689547125259	0.487251970158341	0.7006522139728204	-0.250956892597875	1.0826624114656032	0.7961561690022693	-0.28674534542415625	0.8209579391712463	0.8370133616745445	-0.28345927988983644	0.6218819232602703	0.7056910839020246	-0.23868958653619077	0.5385976717896434	0.6697552064303633	-0.25362558716111105	0.5148864018183568	0.661331120726081	-0.3107522391281814	0.5083682382056587	0.7259292203277701	
80	2.2222222222222223	0.001895373057857086	0.7011140821666644	0.7787241545097277	0.010312206380212768	0.2824686210832636	0.7637579595071544	0.004878178780232464	-0.17867811275461007	0.851990424366554	0.010328228140862008	-0.1449949131824484	0.6034765354411786	0.0727653668273981	-0.15637922301979199	0.6412577591123195	-0.004516696169919592	-0.21993530956296312	0.887107763169868	-0.1919487712035678	0.6905698895895421	0.7761133671219409	-0.1886847863086033	0.2789657958209124	0.770333317346271	-0.1607775879956466	-0.13193531130469932	0.7929241008908514	-0.14422732694881596	-0.11776529235298645	0.5773768065654664	-0.20685840557754603	-0.14822800424617666	0.6365713771620354	-0.14044014066746063	-0.2187378423005165	0.844127385692705	-0.11614219829294439	1.1643053171112623	0.7988336634815216	-0.10660470662232563	1.3998366544438337	0.7235558304591687	-0.09958835331665478	1.2816563438043937	0.6888507300037732	0.04030611252499161	1.0997842655986967	0.7823168271599956	0.09543044409169787	0.8237463614587137	0.800704181311118	0.10176645305942236	0.5943936506886695	0.7214304133006565	0.0662319665408446	0.5046333206183239	0.6774256780262988	0.07789291317600061	0.4917599231479521	0.6750854190497397	0.0952250157646799	0.485528926014386	0.7034383058088546	-0.2508392074193076	1.0825907680893974	0.7963382008075458	-0.28686278495116063	0.822633558444499	0.8362266914727348	-0.2838955076834181	0.6221527831450104	0.7056000511513961	-0.23874758773244958	0.5385394668337156	0.6698094468534485	-0.2539009513408974	0.5148578605716756	0.6612817171122054	-0.3108294449540564	0.5085014757455191	0.7259040932357234	
81	2.25	0.001763071177144998	0.7012659616087897	0.7788277973287113	0.009916786920057444	0.2820774591047803	0.7635778896200613	0.00534368918327106	-0.17877705248007691	0.852187888890402	0.010237594467395928	-0.14460993181786275	0.603519054169138	0.07298734439138584	-0.15700106248244589	0.6413855409088657	-0.004512463886062646	-0.2199609945820097	0.8871034222545098	-0.19190431779890335	0.6905668900079471	0.7761069195901851	-0.18853296387927218	0.2789191921442483	0.7704747237302593	-0.16079902435220214	-0.13181366994610075	0.7929655648060824	-0.14477557696499224	-0.11602759050604444	0.5747878739737109	-0.20690030976139423	-0.1482160193162505	0.6365532659073031	-0.14016610392507575	-0.21964490669892775	0.8451827991643461	-0.11694727994092019	1.1618193582799623	0.8015154268087137	-0.1058411674511382	1.3978254806316517	0.7233434740735885	-0.09932009679160958	1.2771801165672165	0.6881134958624402	0.04119042901800002	1.098204196726558	0.7871874728310708	0.09543534802800602	0.8237021084078964	0.8007582478269138	0.10258843560310996	0.5927723266587076	0.7232664059506512	0.06630293769530607	0.504244265557287	0.6773671228116475	0.07827158069796583	0.4918245875330134	0.6751218225428404	0.09388106326372322	0.4837362693044982	0.7061540927649641	-0.2507261671557024	1.0825493958816756	0.7964211423571244	-0.28711718196915376	0.8238051883606354	0.8361522438165816	-0.28441929134331934	0.6224985417293463	0.7055897470876892	-0.2387777451638058	0.5384928514219683	0.669884262602388	-0.2544933846399584	0.5147665516382222	0.661187360067891	-0.3109083062223995	0.508406010727903	0.7259350036543896	
